<mxfile host="app.diagrams.net" agent="Mozilla/5.0 (Windows NT 10.0; Win64; x64) AppleWebKit/537.36 (KHTML, like Gecko) Chrome/135.0.0.0 Safari/537.36" version="26.2.14">
  <diagram name="Page-1" id="_PgcMVCcg0rRS7YVzeQM">
    <mxGraphModel dx="2137" dy="1423" grid="0" gridSize="10" guides="1" tooltips="1" connect="1" arrows="1" fold="1" page="0" pageScale="1" pageWidth="827" pageHeight="1169" math="0" shadow="0">
      <root>
        <mxCell id="0" />
        <mxCell id="1" parent="0" />
        <mxCell id="2" value="User" style="swimlane;fontStyle=1;align=center;verticalAlign=top;childLayout=stackLayout;horizontal=1;startSize=32;horizontalStack=0;resizeParent=1;resizeParentMax=0;resizeLast=0;collapsible=0;marginBottom=0;" parent="1" vertex="1">
          <mxGeometry x="8" y="32" width="147" height="264" as="geometry" />
        </mxCell>
        <mxCell id="3" value="+int userId" style="text;strokeColor=none;fillColor=none;align=left;verticalAlign=top;spacingLeft=4;spacingRight=4;overflow=hidden;rotatable=0;points=[[0,0.5],[1,0.5]];portConstraint=eastwest;" parent="2" vertex="1">
          <mxGeometry y="32" width="147" height="32" as="geometry" />
        </mxCell>
        <mxCell id="4" value="+string name" style="text;strokeColor=none;fillColor=none;align=left;verticalAlign=top;spacingLeft=4;spacingRight=4;overflow=hidden;rotatable=0;points=[[0,0.5],[1,0.5]];portConstraint=eastwest;" parent="2" vertex="1">
          <mxGeometry y="64" width="147" height="32" as="geometry" />
        </mxCell>
        <mxCell id="5" value="+string email" style="text;strokeColor=none;fillColor=none;align=left;verticalAlign=top;spacingLeft=4;spacingRight=4;overflow=hidden;rotatable=0;points=[[0,0.5],[1,0.5]];portConstraint=eastwest;" parent="2" vertex="1">
          <mxGeometry y="96" width="147" height="32" as="geometry" />
        </mxCell>
        <mxCell id="6" value="+string phone" style="text;strokeColor=none;fillColor=none;align=left;verticalAlign=top;spacingLeft=4;spacingRight=4;overflow=hidden;rotatable=0;points=[[0,0.5],[1,0.5]];portConstraint=eastwest;" parent="2" vertex="1">
          <mxGeometry y="128" width="147" height="32" as="geometry" />
        </mxCell>
        <mxCell id="7" style="line;strokeWidth=1;fillColor=none;align=left;verticalAlign=middle;spacingTop=-1;spacingLeft=3;spacingRight=3;rotatable=0;labelPosition=right;points=[];portConstraint=eastwest;strokeColor=inherit;" parent="2" vertex="1">
          <mxGeometry y="160" width="147" height="8" as="geometry" />
        </mxCell>
        <mxCell id="8" value="+register()" style="text;strokeColor=none;fillColor=none;align=left;verticalAlign=top;spacingLeft=4;spacingRight=4;overflow=hidden;rotatable=0;points=[[0,0.5],[1,0.5]];portConstraint=eastwest;" parent="2" vertex="1">
          <mxGeometry y="168" width="147" height="32" as="geometry" />
        </mxCell>
        <mxCell id="9" value="+login()" style="text;strokeColor=none;fillColor=none;align=left;verticalAlign=top;spacingLeft=4;spacingRight=4;overflow=hidden;rotatable=0;points=[[0,0.5],[1,0.5]];portConstraint=eastwest;" parent="2" vertex="1">
          <mxGeometry y="200" width="147" height="32" as="geometry" />
        </mxCell>
        <mxCell id="10" value="+bookService()" style="text;strokeColor=none;fillColor=none;align=left;verticalAlign=top;spacingLeft=4;spacingRight=4;overflow=hidden;rotatable=0;points=[[0,0.5],[1,0.5]];portConstraint=eastwest;" parent="2" vertex="1">
          <mxGeometry y="232" width="147" height="32" as="geometry" />
        </mxCell>
        <mxCell id="11" value="Service" style="swimlane;fontStyle=1;align=center;verticalAlign=top;childLayout=stackLayout;horizontal=1;startSize=34.666666666666664;horizontalStack=0;resizeParent=1;resizeParentMax=0;resizeLast=0;collapsible=0;marginBottom=0;" parent="1" vertex="1">
          <mxGeometry x="591" y="49" width="185" height="217.66666666666666" as="geometry" />
        </mxCell>
        <mxCell id="12" value="+int serviceId" style="text;strokeColor=none;fillColor=none;align=left;verticalAlign=top;spacingLeft=4;spacingRight=4;overflow=hidden;rotatable=0;points=[[0,0.5],[1,0.5]];portConstraint=eastwest;" parent="11" vertex="1">
          <mxGeometry y="34.666666666666664" width="185" height="35" as="geometry" />
        </mxCell>
        <mxCell id="13" value="+string type" style="text;strokeColor=none;fillColor=none;align=left;verticalAlign=top;spacingLeft=4;spacingRight=4;overflow=hidden;rotatable=0;points=[[0,0.5],[1,0.5]];portConstraint=eastwest;" parent="11" vertex="1">
          <mxGeometry y="69.66666666666666" width="185" height="35" as="geometry" />
        </mxCell>
        <mxCell id="14" value="+string description" style="text;strokeColor=none;fillColor=none;align=left;verticalAlign=top;spacingLeft=4;spacingRight=4;overflow=hidden;rotatable=0;points=[[0,0.5],[1,0.5]];portConstraint=eastwest;" parent="11" vertex="1">
          <mxGeometry y="104.66666666666666" width="185" height="35" as="geometry" />
        </mxCell>
        <mxCell id="15" value="+float cost" style="text;strokeColor=none;fillColor=none;align=left;verticalAlign=top;spacingLeft=4;spacingRight=4;overflow=hidden;rotatable=0;points=[[0,0.5],[1,0.5]];portConstraint=eastwest;" parent="11" vertex="1">
          <mxGeometry y="139.66666666666666" width="185" height="35" as="geometry" />
        </mxCell>
        <mxCell id="16" style="line;strokeWidth=1;fillColor=none;align=left;verticalAlign=middle;spacingTop=-1;spacingLeft=3;spacingRight=3;rotatable=0;labelPosition=right;points=[];portConstraint=eastwest;strokeColor=inherit;" parent="11" vertex="1">
          <mxGeometry y="174.66666666666666" width="185" height="8" as="geometry" />
        </mxCell>
        <mxCell id="17" value="+getDetails()" style="text;strokeColor=none;fillColor=none;align=left;verticalAlign=top;spacingLeft=4;spacingRight=4;overflow=hidden;rotatable=0;points=[[0,0.5],[1,0.5]];portConstraint=eastwest;" parent="11" vertex="1">
          <mxGeometry y="182.66666666666666" width="185" height="35" as="geometry" />
        </mxCell>
        <mxCell id="18" value="Booking" style="swimlane;fontStyle=1;align=center;verticalAlign=top;childLayout=stackLayout;horizontal=1;startSize=32;horizontalStack=0;resizeParent=1;resizeParentMax=0;resizeLast=0;collapsible=0;marginBottom=0;" parent="1" vertex="1">
          <mxGeometry x="291" y="28" width="175" height="264" as="geometry" />
        </mxCell>
        <mxCell id="19" value="+int bookingId" style="text;strokeColor=none;fillColor=none;align=left;verticalAlign=top;spacingLeft=4;spacingRight=4;overflow=hidden;rotatable=0;points=[[0,0.5],[1,0.5]];portConstraint=eastwest;" parent="18" vertex="1">
          <mxGeometry y="32" width="175" height="32" as="geometry" />
        </mxCell>
        <mxCell id="20" value="+date date" style="text;strokeColor=none;fillColor=none;align=left;verticalAlign=top;spacingLeft=4;spacingRight=4;overflow=hidden;rotatable=0;points=[[0,0.5],[1,0.5]];portConstraint=eastwest;" parent="18" vertex="1">
          <mxGeometry y="64" width="175" height="32" as="geometry" />
        </mxCell>
        <mxCell id="21" value="+string status" style="text;strokeColor=none;fillColor=none;align=left;verticalAlign=top;spacingLeft=4;spacingRight=4;overflow=hidden;rotatable=0;points=[[0,0.5],[1,0.5]];portConstraint=eastwest;" parent="18" vertex="1">
          <mxGeometry y="96" width="175" height="32" as="geometry" />
        </mxCell>
        <mxCell id="22" value="+int userId" style="text;strokeColor=none;fillColor=none;align=left;verticalAlign=top;spacingLeft=4;spacingRight=4;overflow=hidden;rotatable=0;points=[[0,0.5],[1,0.5]];portConstraint=eastwest;" parent="18" vertex="1">
          <mxGeometry y="128" width="175" height="32" as="geometry" />
        </mxCell>
        <mxCell id="23" value="+int providerId" style="text;strokeColor=none;fillColor=none;align=left;verticalAlign=top;spacingLeft=4;spacingRight=4;overflow=hidden;rotatable=0;points=[[0,0.5],[1,0.5]];portConstraint=eastwest;" parent="18" vertex="1">
          <mxGeometry y="160" width="175" height="32" as="geometry" />
        </mxCell>
        <mxCell id="24" style="line;strokeWidth=1;fillColor=none;align=left;verticalAlign=middle;spacingTop=-1;spacingLeft=3;spacingRight=3;rotatable=0;labelPosition=right;points=[];portConstraint=eastwest;strokeColor=inherit;" parent="18" vertex="1">
          <mxGeometry y="192" width="175" height="8" as="geometry" />
        </mxCell>
        <mxCell id="25" value="+createBooking()" style="text;strokeColor=none;fillColor=none;align=left;verticalAlign=top;spacingLeft=4;spacingRight=4;overflow=hidden;rotatable=0;points=[[0,0.5],[1,0.5]];portConstraint=eastwest;" parent="18" vertex="1">
          <mxGeometry y="200" width="175" height="32" as="geometry" />
        </mxCell>
        <mxCell id="26" value="+updateStatus()" style="text;strokeColor=none;fillColor=none;align=left;verticalAlign=top;spacingLeft=4;spacingRight=4;overflow=hidden;rotatable=0;points=[[0,0.5],[1,0.5]];portConstraint=eastwest;" parent="18" vertex="1">
          <mxGeometry y="232" width="175" height="32" as="geometry" />
        </mxCell>
        <mxCell id="27" value="ServiceProvider" style="swimlane;fontStyle=1;align=center;verticalAlign=top;childLayout=stackLayout;horizontal=1;startSize=33.142857142857146;horizontalStack=0;resizeParent=1;resizeParentMax=0;resizeLast=0;collapsible=0;marginBottom=0;" parent="1" vertex="1">
          <mxGeometry x="276" y="-349" width="217" height="239.14285714285714" as="geometry" />
        </mxCell>
        <mxCell id="28" value="+int providerId" style="text;strokeColor=none;fillColor=none;align=left;verticalAlign=top;spacingLeft=4;spacingRight=4;overflow=hidden;rotatable=0;points=[[0,0.5],[1,0.5]];portConstraint=eastwest;" parent="27" vertex="1">
          <mxGeometry y="33.142857142857146" width="217" height="33" as="geometry" />
        </mxCell>
        <mxCell id="29" value="+string name" style="text;strokeColor=none;fillColor=none;align=left;verticalAlign=top;spacingLeft=4;spacingRight=4;overflow=hidden;rotatable=0;points=[[0,0.5],[1,0.5]];portConstraint=eastwest;" parent="27" vertex="1">
          <mxGeometry y="66.14285714285714" width="217" height="33" as="geometry" />
        </mxCell>
        <mxCell id="30" value="+string skill" style="text;strokeColor=none;fillColor=none;align=left;verticalAlign=top;spacingLeft=4;spacingRight=4;overflow=hidden;rotatable=0;points=[[0,0.5],[1,0.5]];portConstraint=eastwest;" parent="27" vertex="1">
          <mxGeometry y="99.14285714285714" width="217" height="33" as="geometry" />
        </mxCell>
        <mxCell id="31" value="+string availability" style="text;strokeColor=none;fillColor=none;align=left;verticalAlign=top;spacingLeft=4;spacingRight=4;overflow=hidden;rotatable=0;points=[[0,0.5],[1,0.5]];portConstraint=eastwest;" parent="27" vertex="1">
          <mxGeometry y="132.14285714285714" width="217" height="33" as="geometry" />
        </mxCell>
        <mxCell id="32" style="line;strokeWidth=1;fillColor=none;align=left;verticalAlign=middle;spacingTop=-1;spacingLeft=3;spacingRight=3;rotatable=0;labelPosition=right;points=[];portConstraint=eastwest;strokeColor=inherit;" parent="27" vertex="1">
          <mxGeometry y="165.14285714285714" width="217" height="8" as="geometry" />
        </mxCell>
        <mxCell id="33" value="+acceptBooking()" style="text;strokeColor=none;fillColor=none;align=left;verticalAlign=top;spacingLeft=4;spacingRight=4;overflow=hidden;rotatable=0;points=[[0,0.5],[1,0.5]];portConstraint=eastwest;" parent="27" vertex="1">
          <mxGeometry y="173.14285714285714" width="217" height="33" as="geometry" />
        </mxCell>
        <mxCell id="34" value="+updateStatus()" style="text;strokeColor=none;fillColor=none;align=left;verticalAlign=top;spacingLeft=4;spacingRight=4;overflow=hidden;rotatable=0;points=[[0,0.5],[1,0.5]];portConstraint=eastwest;" parent="27" vertex="1">
          <mxGeometry y="206.14285714285714" width="217" height="33" as="geometry" />
        </mxCell>
        <mxCell id="35" value="Payment" style="swimlane;fontStyle=1;align=center;verticalAlign=top;childLayout=stackLayout;horizontal=1;startSize=34.666666666666664;horizontalStack=0;resizeParent=1;resizeParentMax=0;resizeLast=0;collapsible=0;marginBottom=0;" parent="1" vertex="1">
          <mxGeometry x="303" y="369" width="176" height="217.66666666666666" as="geometry" />
        </mxCell>
        <mxCell id="36" value="+int paymentId" style="text;strokeColor=none;fillColor=none;align=left;verticalAlign=top;spacingLeft=4;spacingRight=4;overflow=hidden;rotatable=0;points=[[0,0.5],[1,0.5]];portConstraint=eastwest;" parent="35" vertex="1">
          <mxGeometry y="34.666666666666664" width="176" height="35" as="geometry" />
        </mxCell>
        <mxCell id="37" value="+float amount" style="text;strokeColor=none;fillColor=none;align=left;verticalAlign=top;spacingLeft=4;spacingRight=4;overflow=hidden;rotatable=0;points=[[0,0.5],[1,0.5]];portConstraint=eastwest;" parent="35" vertex="1">
          <mxGeometry y="69.66666666666666" width="176" height="35" as="geometry" />
        </mxCell>
        <mxCell id="38" value="+string status" style="text;strokeColor=none;fillColor=none;align=left;verticalAlign=top;spacingLeft=4;spacingRight=4;overflow=hidden;rotatable=0;points=[[0,0.5],[1,0.5]];portConstraint=eastwest;" parent="35" vertex="1">
          <mxGeometry y="104.66666666666666" width="176" height="35" as="geometry" />
        </mxCell>
        <mxCell id="39" style="line;strokeWidth=1;fillColor=none;align=left;verticalAlign=middle;spacingTop=-1;spacingLeft=3;spacingRight=3;rotatable=0;labelPosition=right;points=[];portConstraint=eastwest;strokeColor=inherit;" parent="35" vertex="1">
          <mxGeometry y="139.66666666666666" width="176" height="8" as="geometry" />
        </mxCell>
        <mxCell id="40" value="+makePayment()" style="text;strokeColor=none;fillColor=none;align=left;verticalAlign=top;spacingLeft=4;spacingRight=4;overflow=hidden;rotatable=0;points=[[0,0.5],[1,0.5]];portConstraint=eastwest;" parent="35" vertex="1">
          <mxGeometry y="147.66666666666666" width="176" height="35" as="geometry" />
        </mxCell>
        <mxCell id="41" value="+refund()" style="text;strokeColor=none;fillColor=none;align=left;verticalAlign=top;spacingLeft=4;spacingRight=4;overflow=hidden;rotatable=0;points=[[0,0.5],[1,0.5]];portConstraint=eastwest;" parent="35" vertex="1">
          <mxGeometry y="182.66666666666666" width="176" height="35" as="geometry" />
        </mxCell>
        <mxCell id="42" value="Admin" style="swimlane;fontStyle=1;align=center;verticalAlign=top;childLayout=stackLayout;horizontal=1;startSize=36.8;horizontalStack=0;resizeParent=1;resizeParentMax=0;resizeLast=0;collapsible=0;marginBottom=0;" parent="1" vertex="1">
          <mxGeometry x="-34" y="-326" width="189" height="192.8" as="geometry" />
        </mxCell>
        <mxCell id="43" value="+int adminId" style="text;strokeColor=none;fillColor=none;align=left;verticalAlign=top;spacingLeft=4;spacingRight=4;overflow=hidden;rotatable=0;points=[[0,0.5],[1,0.5]];portConstraint=eastwest;" parent="42" vertex="1">
          <mxGeometry y="36.8" width="189" height="37" as="geometry" />
        </mxCell>
        <mxCell id="44" value="+string email" style="text;strokeColor=none;fillColor=none;align=left;verticalAlign=top;spacingLeft=4;spacingRight=4;overflow=hidden;rotatable=0;points=[[0,0.5],[1,0.5]];portConstraint=eastwest;" parent="42" vertex="1">
          <mxGeometry y="73.8" width="189" height="37" as="geometry" />
        </mxCell>
        <mxCell id="45" style="line;strokeWidth=1;fillColor=none;align=left;verticalAlign=middle;spacingTop=-1;spacingLeft=3;spacingRight=3;rotatable=0;labelPosition=right;points=[];portConstraint=eastwest;strokeColor=inherit;" parent="42" vertex="1">
          <mxGeometry y="110.8" width="189" height="8" as="geometry" />
        </mxCell>
        <mxCell id="46" value="+manageUsers()" style="text;strokeColor=none;fillColor=none;align=left;verticalAlign=top;spacingLeft=4;spacingRight=4;overflow=hidden;rotatable=0;points=[[0,0.5],[1,0.5]];portConstraint=eastwest;" parent="42" vertex="1">
          <mxGeometry y="118.8" width="189" height="37" as="geometry" />
        </mxCell>
        <mxCell id="47" value="+manageProviders()" style="text;strokeColor=none;fillColor=none;align=left;verticalAlign=top;spacingLeft=4;spacingRight=4;overflow=hidden;rotatable=0;points=[[0,0.5],[1,0.5]];portConstraint=eastwest;" parent="42" vertex="1">
          <mxGeometry y="155.8" width="189" height="37" as="geometry" />
        </mxCell>
        <mxCell id="rBZRV64s81pi96cBtOnH-47" value="" style="endArrow=classic;html=1;rounded=0;fontSize=12;startSize=8;endSize=8;curved=1;exitX=1;exitY=0.5;exitDx=0;exitDy=0;entryX=0;entryY=0.5;entryDx=0;entryDy=0;" edge="1" parent="1" source="5" target="21">
          <mxGeometry width="50" height="50" relative="1" as="geometry">
            <mxPoint x="483" y="189" as="sourcePoint" />
            <mxPoint x="533" y="139" as="targetPoint" />
          </mxGeometry>
        </mxCell>
        <mxCell id="rBZRV64s81pi96cBtOnH-49" value="" style="endArrow=classic;html=1;rounded=0;fontSize=12;startSize=8;endSize=8;curved=1;entryX=0.5;entryY=0;entryDx=0;entryDy=0;" edge="1" parent="1" target="18">
          <mxGeometry width="50" height="50" relative="1" as="geometry">
            <mxPoint x="375" y="-109" as="sourcePoint" />
            <mxPoint x="534" y="23" as="targetPoint" />
          </mxGeometry>
        </mxCell>
        <mxCell id="rBZRV64s81pi96cBtOnH-50" value="" style="endArrow=classic;html=1;rounded=0;fontSize=12;startSize=8;endSize=8;curved=1;exitX=1.017;exitY=0.867;exitDx=0;exitDy=0;exitPerimeter=0;entryX=-0.005;entryY=-0.055;entryDx=0;entryDy=0;entryPerimeter=0;" edge="1" parent="1" source="21" target="14">
          <mxGeometry width="50" height="50" relative="1" as="geometry">
            <mxPoint x="484" y="33" as="sourcePoint" />
            <mxPoint x="534" y="-17" as="targetPoint" />
          </mxGeometry>
        </mxCell>
        <mxCell id="rBZRV64s81pi96cBtOnH-51" value="" style="endArrow=classic;html=1;rounded=0;fontSize=12;startSize=8;endSize=8;curved=1;entryX=0.426;entryY=0.013;entryDx=0;entryDy=0;entryPerimeter=0;" edge="1" parent="1" source="26" target="35">
          <mxGeometry width="50" height="50" relative="1" as="geometry">
            <mxPoint x="683" y="303" as="sourcePoint" />
            <mxPoint x="733" y="253" as="targetPoint" />
          </mxGeometry>
        </mxCell>
        <mxCell id="rBZRV64s81pi96cBtOnH-52" value="" style="endArrow=classic;html=1;rounded=0;fontSize=12;startSize=8;endSize=8;curved=1;exitX=0.503;exitY=0.945;exitDx=0;exitDy=0;exitPerimeter=0;entryX=0.381;entryY=-0.005;entryDx=0;entryDy=0;entryPerimeter=0;" edge="1" parent="1" source="47" target="2">
          <mxGeometry width="50" height="50" relative="1" as="geometry">
            <mxPoint x="248" y="9" as="sourcePoint" />
            <mxPoint x="298" y="-41" as="targetPoint" />
          </mxGeometry>
        </mxCell>
        <mxCell id="rBZRV64s81pi96cBtOnH-53" value="" style="endArrow=classic;html=1;rounded=0;fontSize=12;startSize=8;endSize=8;curved=1;exitX=1;exitY=0.5;exitDx=0;exitDy=0;entryX=0;entryY=0.5;entryDx=0;entryDy=0;" edge="1" parent="1" source="44" target="30">
          <mxGeometry width="50" height="50" relative="1" as="geometry">
            <mxPoint x="248" y="9" as="sourcePoint" />
            <mxPoint x="298" y="-41" as="targetPoint" />
          </mxGeometry>
        </mxCell>
      </root>
    </mxGraphModel>
  </diagram>
</mxfile>
